<?xml version="1.0" standalone="no"?>
<!DOCTYPE svg PUBLIC "-//W3C//DTD SVG 20010904//EN"
 "http://www.w3.org/TR/2001/REC-SVG-20010904/DTD/svg10.dtd">
<svg version="1.0" xmlns="http://www.w3.org/2000/svg"
 width="404.000000pt" height="404.000000pt" viewBox="0 0 404.000000 404.000000"
 preserveAspectRatio="xMidYMid meet">
<metadata>
Created by potrace 1.14, written by Peter Selinger 2001-2017
</metadata>
<g transform="translate(0.000000,404.000000) scale(0.100000,-0.100000)"
fill="#000000" stroke="none">
<path d="M414 2575 c-143 -33 -232 -131 -242 -265 -9 -129 36 -227 131 -287
122 -77 314 -67 410 22 15 14 27 30 27 35 0 10 -74 82 -90 88 -5 2 -28 -11
-51 -27 -35 -26 -51 -31 -98 -31 -83 0 -142 47 -159 127 -16 73 27 172 83 193
65 25 146 11 192 -32 l22 -20 57 48 56 48 -33 29 c-84 71 -195 97 -305 72z"/>
<path d="M3560 2575 c-71 -15 -117 -36 -156 -72 -70 -64 -98 -133 -96 -236 3
-205 177 -328 407 -288 37 7 90 23 116 37 l49 24 0 125 0 125 -75 0 -75 0 0
-84 c0 -95 0 -96 -96 -96 -126 0 -197 136 -135 258 21 41 70 70 126 76 42 4
113 -19 140 -44 l23 -22 52 49 52 49 -29 28 c-63 64 -193 94 -303 71z"/>
<path d="M1033 2556 c-66 -27 -108 -61 -139 -112 -71 -119 -62 -262 23 -369
16 -19 34 -35 41 -35 6 0 12 -3 12 -7 0 -15 63 -44 105 -50 35 -4 46 -2 64 16
26 26 28 75 4 97 -10 8 -33 25 -52 37 -99 63 -99 221 0 284 54 36 69 54 69 89
0 34 -11 47 -51 62 -18 7 -37 5 -76 -12z m100 -485 c15 -58 -65 -98 -93 -47
-10 20 -11 32 -2 50 18 41 84 39 95 -3z"/>
<path d="M1282 2563 c-56 -27 -48 -103 13 -132 70 -32 104 -101 91 -183 -10
-58 -31 -90 -87 -127 -27 -17 -49 -35 -50 -39 0 -4 -2 -17 -5 -30 -6 -31 36
-72 73 -72 94 1 219 122 238 230 10 56 8 116 -5 156 -42 128 -188 236 -268
197z m61 -12 c46 -18 37 -91 -13 -104 -13 -3 -30 3 -47 17 -40 34 -25 75 34
95 1 1 13 -3 26 -8z"/>
<path d="M1670 2274 l0 -296 193 4 c187 3 194 4 247 31 110 56 159 130 165
247 3 45 -2 81 -15 117 -22 63 -42 90 -95 130 -67 51 -126 63 -322 63 l-173 0
0 -296z m360 146 c14 -6 37 -27 50 -47 20 -30 25 -49 25 -99 0 -71 -19 -105
-74 -137 -37 -22 -179 -36 -190 -19 -5 9 -7 284 -2 314 2 11 163 1 191 -12z"/>
<path d="M2370 2275 l0 -296 82 3 83 3 0 293 0 292 -82 0 -83 0 0 -295z"/>
<path d="M2652 2275 l0 -295 83 0 82 0 1 138 c0 75 1 145 1 155 1 11 29 -16
78 -75 43 -51 82 -98 88 -104 5 -6 28 -34 50 -62 l40 -51 71 -1 71 0 0 295 1
295 -82 0 -82 0 0 -150 c1 -83 -2 -150 -5 -150 -6 0 -64 66 -144 165 -13 17
-36 44 -50 60 -15 17 -33 40 -42 53 -14 19 -24 22 -89 22 l-73 0 1 -295z"/>
<path d="M1023 1808 c-62 -16 -90 -82 -58 -132 17 -26 39 -37 125 -61 86 -24
104 -77 38 -111 -37 -19 -104 -13 -143 12 -23 15 -45 12 -45 -6 0 -15 70 -42
118 -46 50 -4 118 20 132 47 14 26 12 72 -4 95 -8 10 -54 32 -103 49 -83 28
-88 32 -91 61 -2 20 3 36 16 47 25 23 89 28 131 11 32 -14 51 -11 51 6 0 11
-65 33 -105 35 -16 1 -44 -2 -62 -7z"/>
<path d="M1339 1812 l-25 -3 0 -169 c0 -111 3 -170 10 -173 6 -2 61 -3 121 -3
91 1 110 4 110 16 0 12 -18 15 -100 15 l-100 0 -3 61 c-3 72 -5 71 106 69 63
-1 72 1 72 17 0 16 -10 18 -90 18 l-90 0 0 60 c0 50 3 60 18 61 9 0 55 1 101
2 57 1 86 6 88 15 3 8 -7 12 -29 13 -18 0 -62 1 -98 2 -36 1 -77 1 -91 -1z"/>
<path d="M1682 1640 c3 -148 5 -175 18 -175 11 0 15 12 16 40 1 22 2 47 3 55
1 12 14 15 61 15 l60 -1 38 -53 c20 -30 45 -55 55 -57 24 -3 22 6 -18 62 -19
27 -35 52 -35 55 0 3 11 11 24 18 29 16 46 51 46 96 0 84 -47 115 -183 118
l-87 2 2 -175z m155 141 c32 -1 72 -41 78 -78 4 -26 -1 -39 -22 -63 -26 -28
-33 -31 -93 -32 -36 0 -69 0 -75 1 -9 1 -10 36 -6 143 1 28 13 34 65 31 17 -1
41 -2 53 -2z"/>
<path d="M2462 1812 l-22 -3 2 -172 3 -172 123 0 c93 -1 122 2 122 12 0 15 0
15 -115 17 l-90 1 0 65 0 65 85 0 c73 0 85 2 88 18 3 15 -6 17 -86 17 l-90 0
-1 63 0 62 92 -2 c103 -2 119 1 112 19 -4 9 -32 13 -103 13 -53 0 -107 -1
-120 -3z"/>
<path d="M2809 1800 c-1 -21 -1 -301 0 -323 2 -41 26 -7 31 43 l5 54 55 1 c59
1 66 -3 122 -77 14 -19 33 -35 42 -35 22 0 21 1 -24 64 l-40 56 29 18 c36 22
39 27 46 78 6 49 -13 94 -48 113 -12 7 -66 15 -120 18 -82 4 -97 3 -98 -10z
m152 -19 c39 -1 79 -46 79 -88 0 -42 -37 -83 -77 -84 -34 -1 -105 -1 -115 0
-4 1 -7 39 -6 85 1 92 2 94 68 89 14 -1 37 -2 51 -2z"/>
<path d="M2035 1764 c14 -26 25 -51 25 -55 0 -5 15 -41 34 -81 19 -40 42 -92
51 -115 21 -49 50 -61 67 -30 6 12 42 91 79 175 58 131 65 153 48 150 -13 -2
-30 -27 -55 -83 -20 -44 -50 -109 -66 -144 l-30 -64 -32 65 c-17 36 -47 102
-66 147 -29 67 -38 81 -57 81 l-22 0 24 -46z"/>
</g>
</svg>
