<?xml version="1.0" standalone="no"?>
<!DOCTYPE svg PUBLIC "-//W3C//DTD SVG 20010904//EN"
 "http://www.w3.org/TR/2001/REC-SVG-20010904/DTD/svg10.dtd">
<svg version="1.0" xmlns="http://www.w3.org/2000/svg"
 width="171.000000pt" height="171.000000pt" viewBox="0 0 171.000000 171.000000"
 preserveAspectRatio="xMidYMid meet">
<metadata>
Created by potrace 1.14, written by Peter Selinger 2001-2017
</metadata>
<g transform="translate(0.000000,171.000000) scale(0.100000,-0.100000)"
fill="#000000" stroke="none">
<path d="M535 1430 c-175 -60 -321 -187 -393 -342 -76 -165 -77 -381 -2 -555
12 -29 27 -53 32 -53 5 0 7 -4 4 -8 -3 -5 6 -20 20 -35 14 -15 23 -27 20 -27
-12 0 123 -129 164 -157 109 -74 235 -106 295 -76 49 26 94 90 79 114 -3 5 -1
9 5 9 9 0 9 11 -5 72 -6 30 -60 82 -96 93 -13 4 -31 14 -40 23 -10 8 -18 12
-18 8 0 -4 -17 11 -37 32 -41 41 -78 86 -75 89 0 2 -5 17 -12 35 -34 81 -36
269 -3 290 6 4 8 8 4 8 -11 0 41 90 76 130 17 19 32 33 34 30 1 -3 11 3 23 12
11 10 20 16 20 13 0 -3 17 4 39 16 41 21 85 71 87 98 1 9 3 30 5 46 4 42 -27
101 -66 125 -44 27 -100 31 -160 10z m95 -1001 c0 -5 8 -9 18 -9 19 0 54 -36
60 -61 10 -40 10 -52 1 -77 -23 -61 -83 -93 -144 -78 -27 7 -81 58 -83 78 -3
41 -3 55 0 71 6 27 55 75 81 79 40 7 67 6 67 -3z"/>
<path d="M1048 1435 c-19 -6 -45 -21 -56 -31 -25 -23 -52 -84 -52 -116 0 -39
39 -106 71 -120 16 -7 29 -16 29 -20 0 -5 7 -8 16 -8 21 0 71 -35 116 -82 21
-21 37 -39 37 -41 -1 -1 8 -21 20 -44 11 -23 21 -54 21 -68 0 -14 3 -25 8 -25
8 0 7 -76 -2 -152 -4 -28 -21 -78 -38 -110 -32 -60 -113 -142 -129 -132 -5 3
-9 1 -9 -5 0 -5 -10 -13 -22 -17 -68 -20 -120 -96 -112 -160 9 -72 66 -130
135 -138 44 -4 196 49 244 86 117 89 231 217 220 246 -3 7 -1 10 4 7 5 -3 12
5 16 17 4 13 13 37 21 54 8 18 15 45 17 61 2 16 6 33 9 39 10 16 8 243 -3 249
-5 4 -7 11 -3 16 3 6 1 22 -4 37 -6 15 -14 36 -18 47 -4 11 -8 22 -8 25 -3 20
-41 90 -48 90 -5 0 -7 4 -4 9 3 4 -3 16 -14 26 -11 10 -20 22 -20 28 0 20
-119 126 -187 165 -39 23 -74 42 -77 42 -2 0 -17 5 -33 12 -15 6 -32 12 -38
13 -45 11 -77 11 -107 0z m120 -34 c39 -21 82 -104 61 -117 -5 -3 -7 -9 -4
-14 9 -14 -15 -57 -45 -78 -52 -39 -111 -33 -169 18 -34 29 -36 115 -5 157 34
46 110 62 162 34z"/>
</g>
</svg>
